<svg xmlns="http://www.w3.org/2000/svg" xmlns:xlink="http://www.w3.org/1999/xlink" viewBox="0,0,256,256" width="60px" height="60px" fill-rule="nonzero" fill="none"><g fill="none" fill-rule="nonzero" stroke="none" stroke-width="1" stroke-linecap="butt" stroke-linejoin="miter" stroke-miterlimit="10" stroke-dasharray="" stroke-dashoffset="0" font-family="none" font-weight="none" font-size="none" text-anchor="none" style="mix-blend-mode: normal"><g transform="scale(5.33333,5.33333)"><path d="M42,37c0,2.762 -2.238,5 -5,5h-26c-2.761,0 -5,-2.238 -5,-5v-26c0,-2.762 2.239,-5 5,-5h26c2.762,0 5,2.238 5,5z" fill="#410093"></path><path d="M34,13h-20c-0.552,0 -1,0.448 -1,1v12c0,0.552 0.448,1 1,1h20c0.552,0 1,-0.448 1,-1v-12c0,-0.552 -0.448,-1 -1,-1zM33,17l-9,4l-9,-4v-2h18z" fill="#ffffff"></path><g transform="translate(-72.063,127.866) scale(0.63072,0.63072)" fill="#ffffff"><path d="M132.266,-150.491h2.385l1.389,3.552l1.407,-3.552h2.322l-3.496,8.41h-2.337l0.957,-2.228z"></path><path d="M142.186,-150.633c-1.792,0 -2.924,1.607 -2.924,3.207c0,1.801 1.242,3.228 2.89,3.228c1.23,0 1.693,-0.749 1.693,-0.749v0.584h2.08v-6.128h-2.08v0.557c0.001,0 -0.517,-0.699 -1.659,-0.699zM142.629,-148.663c0.827,0 1.253,0.654 1.253,1.244c0,0.636 -0.457,1.259 -1.253,1.259c-0.66,0 -1.256,-0.539 -1.256,-1.232c-0.001,-0.703 0.479,-1.271 1.256,-1.271z"></path><path d="M146.642,-144.363v-8.834h2.175v3.284c0,0 0.517,-0.719 1.599,-0.719c1.324,0 2.099,0.986 2.099,2.396v3.873h-2.159v-3.343c0,-0.477 -0.227,-0.938 -0.742,-0.938c-0.524,0 -0.797,0.468 -0.797,0.938v3.343z"></path><path d="M156.224,-150.632c-2.052,0 -3.274,1.56 -3.274,3.232c0,1.902 1.479,3.203 3.281,3.203c1.747,0 3.275,-1.241 3.275,-3.171c0.001,-2.111 -1.599,-3.264 -3.282,-3.264zM156.244,-148.645c0.725,0 1.226,0.604 1.226,1.247c0,0.549 -0.467,1.226 -1.226,1.226c-0.695,0 -1.217,-0.558 -1.217,-1.232c0,-0.649 0.433,-1.241 1.217,-1.241z"></path><path d="M163.131,-150.632c-2.052,0 -3.274,1.56 -3.274,3.232c0,1.902 1.479,3.203 3.281,3.203c1.747,0 3.275,-1.241 3.275,-3.171c0.001,-2.111 -1.599,-3.264 -3.282,-3.264zM163.151,-148.645c0.725,0 1.226,0.604 1.226,1.247c0,0.549 -0.467,1.226 -1.226,1.226c-0.695,0 -1.217,-0.558 -1.217,-1.232c-0.001,-0.649 0.433,-1.241 1.217,-1.241z"></path><circle cx="168.131" cy="-145.677" r="1.445"></circle><path d="M170.05,-147.653h-2.601l2.308,-5.545h2.591z"></path></g></g></g></svg>