<svg xmlns="http://www.w3.org/2000/svg" xmlns:xlink="http://www.w3.org/1999/xlink" viewBox="0,0,256,256" width="480px" height="480px" fill-rule="nonzero" fill="none"><g fill="none" fill-rule="nonzero" stroke="none" stroke-width="1" stroke-linecap="butt" stroke-linejoin="miter" stroke-miterlimit="10" stroke-dasharray="" stroke-dashoffset="0" font-family="none" font-weight="none" font-size="none" text-anchor="none" style="mix-blend-mode: normal"><g transform="scale(2.56,2.56)"><path d="M69,82h-38c-7.18,0 -13,-5.82 -13,-13v-38c0,-7.18 5.82,-13 13,-13h38c7.18,0 13,5.82 13,13v38c0,7.18 -5.82,13 -13,13z" fill="#e3e2d3"></path><path d="M66.5,78h-33c-6.341,0 -11.5,-5.159 -11.5,-11.5v-33c0,-6.341 5.159,-11.5 11.5,-11.5h33c0.353,0 0.701,0.021 1.046,0.053c0.275,0.025 0.477,0.269 0.452,0.544c-0.025,0.274 -0.258,0.476 -0.544,0.452c-0.315,-0.029 -0.632,-0.049 -0.954,-0.049h-33c-5.79,0 -10.5,4.71 -10.5,10.5v33c0,5.79 4.71,10.5 10.5,10.5h33c5.79,0 10.5,-4.71 10.5,-10.5v-17c0,-0.276 0.224,-0.5 0.5,-0.5c0.276,0 0.5,0.224 0.5,0.5v17c0,6.341 -5.159,11.5 -11.5,11.5zM77.5,40c-0.276,0 -0.5,-0.224 -0.5,-0.5v-2c0,-0.276 0.224,-0.5 0.5,-0.5c0.276,0 0.5,0.224 0.5,0.5v2c0,0.276 -0.224,0.5 -0.5,0.5zM77.5,47c-0.276,0 -0.5,-0.224 -0.5,-0.5v-4c0,-0.276 0.224,-0.5 0.5,-0.5c0.276,0 0.5,0.224 0.5,0.5v4c0,0.276 -0.224,0.5 -0.5,0.5z" fill="#1f212b"></path><path d="M69,83h-38c-7.72,0 -14,-6.28 -14,-14v-38c0,-7.72 6.28,-14 14,-14h38c7.72,0 14,6.28 14,14v38c0,7.72 -6.28,14 -14,14zM31,19c-6.617,0 -12,5.383 -12,12v38c0,6.617 5.383,12 12,12h38c6.617,0 12,-5.383 12,-12v-38c0,-6.617 -5.383,-12 -12,-12z" fill="#1f212b"></path><path d="M33.701,30.705l-3.182,3.182c-0.879,0.879 -0.945,2.237 -0.147,3.035l32.707,32.707c0.797,0.797 2.156,0.731 3.035,-0.147l3.182,-3.182c0.879,-0.879 0.945,-2.237 0.147,-3.035l-32.707,-32.708c-0.798,-0.797 -2.156,-0.731 -3.035,0.148zM35.999,36.185c-0.391,0.391 -1.024,0.391 -1.414,0c-0.39,-0.391 -0.391,-1.024 0,-1.414c0.391,-0.391 1.024,-0.391 1.414,0c0.391,0.39 0.391,1.023 0,1.414z" fill="#dcc214"></path><path d="M35.292,30.649c0.512,0 1.024,0.195 1.414,0.586l32.059,32.059c0.781,0.781 0.781,2.047 0,2.828l-2.828,2.828c-0.391,0.391 -0.902,0.586 -1.414,0.586c-0.512,0 -1.024,-0.195 -1.414,-0.586l-32.06,-32.058c-0.781,-0.781 -0.781,-2.047 0,-2.828l2.828,-2.828c0.391,-0.392 0.903,-0.587 1.415,-0.587M35.292,29.649c-0.801,0 -1.555,0.312 -2.121,0.879l-2.828,2.828c-0.567,0.567 -0.879,1.32 -0.879,2.121c0,0.801 0.312,1.555 0.879,2.121l32.059,32.059c0.567,0.567 1.32,0.879 2.121,0.879c0.801,0 1.555,-0.312 2.121,-0.879l2.828,-2.828c0.567,-0.567 0.879,-1.32 0.879,-2.121c0,-0.801 -0.312,-1.555 -0.879,-2.121l-32.059,-32.059c-0.566,-0.567 -1.32,-0.879 -2.121,-0.879z" fill="#1f212b"></path><path d="M35.292,34.478c0.256,0 0.512,0.098 0.707,0.293c0.391,0.391 0.391,1.024 0,1.414c-0.195,0.195 -0.451,0.293 -0.707,0.293c-0.256,0 -0.512,-0.098 -0.707,-0.293c-0.391,-0.391 -0.391,-1.024 0,-1.414c0.195,-0.196 0.451,-0.293 0.707,-0.293M35.292,33.478c-0.534,0 -1.036,0.208 -1.414,0.586c-0.78,0.78 -0.78,2.049 0,2.828c0.378,0.378 0.88,0.586 1.414,0.586c0.534,0 1.036,-0.208 1.414,-0.586c0.78,-0.78 0.78,-2.049 0,-2.828c-0.378,-0.378 -0.88,-0.586 -1.414,-0.586z" fill="#1f212b"></path><path d="M40.242,38.099c-0.128,0 -0.256,-0.049 -0.354,-0.146c-0.195,-0.195 -0.195,-0.512 0,-0.707l1.414,-1.415c0.195,-0.195 0.512,-0.195 0.707,0c0.195,0.195 0.195,0.512 0,0.707l-1.414,1.415c-0.097,0.097 -0.225,0.146 -0.353,0.146z" fill="#1f212b"></path><path d="M41.951,42.637c-0.128,0 -0.256,-0.049 -0.354,-0.146c-0.195,-0.195 -0.195,-0.512 0,-0.707l2.828,-2.829c0.195,-0.195 0.512,-0.195 0.707,0c0.195,0.195 0.195,0.512 0,0.707l-2.828,2.829c-0.097,0.097 -0.225,0.146 -0.353,0.146z" fill="#1f212b"></path><path d="M46.489,44.346c-0.128,0 -0.256,-0.049 -0.354,-0.146c-0.195,-0.195 -0.195,-0.512 0,-0.707l1.414,-1.414c0.195,-0.195 0.512,-0.195 0.707,0c0.195,0.195 0.195,0.512 0,0.707l-1.414,1.414c-0.097,0.097 -0.225,0.146 -0.353,0.146z" fill="#1f212b"></path><path d="M48.198,48.884c-0.128,0 -0.256,-0.049 -0.354,-0.146c-0.195,-0.195 -0.195,-0.512 0,-0.707l2.829,-2.829c0.195,-0.195 0.512,-0.195 0.707,0c0.195,0.195 0.195,0.512 0,0.707l-2.829,2.829c-0.097,0.097 -0.225,0.146 -0.353,0.146z" fill="#1f212b"></path><path d="M52.736,50.593c-0.128,0 -0.256,-0.049 -0.354,-0.146c-0.195,-0.195 -0.195,-0.512 0,-0.707l1.414,-1.414c0.195,-0.195 0.512,-0.195 0.707,0c0.195,0.195 0.195,0.512 0,0.707l-1.414,1.414c-0.097,0.097 -0.225,0.146 -0.353,0.146z" fill="#1f212b"></path><path d="M54.445,55.13c-0.128,0 -0.256,-0.049 -0.354,-0.146c-0.195,-0.195 -0.195,-0.512 0,-0.707l2.829,-2.828c0.195,-0.195 0.512,-0.195 0.707,0c0.195,0.195 0.195,0.512 0,0.707l-2.829,2.828c-0.097,0.098 -0.225,0.146 -0.353,0.146z" fill="#1f212b"></path><path d="M58.982,56.84c-0.128,0 -0.256,-0.049 -0.354,-0.146c-0.195,-0.195 -0.195,-0.512 0,-0.707l1.415,-1.415c0.195,-0.195 0.512,-0.195 0.707,0c0.195,0.195 0.195,0.512 0,0.707l-1.415,1.415c-0.097,0.097 -0.225,0.146 -0.353,0.146z" fill="#1f212b"></path><path d="M60.692,61.377c-0.128,0 -0.256,-0.049 -0.354,-0.146c-0.195,-0.195 -0.195,-0.512 0,-0.707l2.828,-2.829c0.195,-0.195 0.512,-0.195 0.707,0c0.195,0.195 0.195,0.512 0,0.707l-2.828,2.829c-0.097,0.098 -0.225,0.146 -0.353,0.146z" fill="#1f212b"></path><path d="M65.229,63.087c-0.128,0 -0.256,-0.049 -0.354,-0.146c-0.195,-0.195 -0.195,-0.512 0,-0.707l1.414,-1.415c0.195,-0.195 0.512,-0.195 0.707,0c0.195,0.195 0.195,0.512 0,0.707l-1.414,1.415c-0.097,0.097 -0.225,0.146 -0.353,0.146z" fill="#1f212b"></path><g><path d="M39.885,65.046l-7.205,3.799c-0.897,0.391 -1.917,-0.629 -1.526,-1.526l3.799,-7.205c0.372,-0.853 0.894,-1.62 1.543,-2.269l10.481,-10.481l15.146,-15.146c1.394,-1.394 3.791,-1.258 5.353,0.304v0v0c1.562,1.562 1.698,3.959 0.304,5.353l-15.144,15.146l-10.481,10.481c-0.65,0.649 -1.417,1.171 -2.27,1.544z" fill="#fbcfab"></path><path d="M67.478,32.522c-1.562,-1.562 -3.959,-1.698 -5.353,-0.304l-15.146,15.146l-9.872,9.872l0.103,3.064l2.267,0.214l0.216,2.265l2.904,0.281l10.039,-10.039l15.146,-15.146c1.395,-1.395 1.258,-3.791 -0.304,-5.353z" fill="#47673d"></path><path d="M32.762,64.273l-1.606,3.046c-0.391,0.896 0.629,1.917 1.525,1.525l3.046,-1.606z" fill="#515159"></path><path d="M67.478,32.522c-1.562,-1.562 -3.959,-1.698 -5.353,-0.304l-2.072,2.072l5.657,5.657l2.072,-2.072c1.395,-1.395 1.258,-3.791 -0.304,-5.353z" fill="#d8493a"></path><rect x="66.70942" y="-18.71937" transform="rotate(45.001)" width="8" height="8" fill="#515159"></rect><path d="M64.65,31.85c0.896,0 1.791,0.342 2.475,1.025v0c1.367,1.367 1.367,3.583 0,4.95l-14.849,14.849l-10.254,10.253c-0.636,0.636 -1.375,1.161 -2.186,1.551l-6.907,3.927c-0.147,0.071 -0.296,0.103 -0.439,0.103c-0.683,0 -1.236,-0.733 -0.896,-1.438l3.927,-6.907c0.39,-0.811 0.915,-1.55 1.551,-2.186l10.253,-10.253l14.849,-14.849c0.684,-0.683 1.58,-1.025 2.476,-1.025M64.65,30.85c-1.202,0 -2.332,0.468 -3.182,1.318l-14.849,14.849l-10.253,10.253c-0.709,0.709 -1.291,1.526 -1.73,2.428l-3.91,6.878l-0.017,0.03l-0.015,0.031c-0.301,0.624 -0.262,1.344 0.104,1.926c0.367,0.584 1.016,0.946 1.694,0.946c0.301,0 0.594,-0.068 0.872,-0.202l0.031,-0.015l0.03,-0.017l6.878,-3.91c0.902,-0.439 1.719,-1.02 2.428,-1.73l10.253,-10.253l14.849,-14.849c0.85,-0.85 1.318,-1.98 1.318,-3.182c0,-1.202 -0.468,-2.332 -1.318,-3.182c-0.851,-0.851 -1.981,-1.319 -3.183,-1.319z" fill="#1f212b"></path><rect x="18.21659" y="66.71071" transform="rotate(-45.001)" width="1" height="8" fill="#1f212b"></rect><rect x="15.21734" y="66.71095" transform="rotate(-45.001)" width="1" height="8" fill="#1f212b"></rect><path d="M62.529,43.628c-0.128,0 -0.256,-0.049 -0.354,-0.146l-3.182,-3.182c-0.195,-0.195 -0.195,-0.512 0,-0.707c0.195,-0.195 0.512,-0.195 0.707,0l3.182,3.182c0.195,0.195 0.195,0.512 0,0.707c-0.097,0.098 -0.225,0.146 -0.353,0.146z" fill="#1f212b"></path><path d="M57.933,39.032c-0.128,0 -0.256,-0.049 -0.354,-0.146l-1.061,-1.061c-0.195,-0.195 -0.195,-0.512 0,-0.707c0.195,-0.195 0.512,-0.195 0.707,0l1.061,1.061c0.195,0.195 0.195,0.512 0,0.707c-0.098,0.097 -0.225,0.146 -0.353,0.146z" fill="#1f212b"></path><rect x="10.21638" y="66.71057" transform="rotate(-45.001)" width="1" height="8" fill="#1f212b"></rect><path d="M42.597,63.56c-0.016,0 -0.032,-0.001 -0.049,-0.002l-2.904,-0.281c-0.238,-0.023 -0.427,-0.212 -0.449,-0.45l-0.177,-1.854l-1.855,-0.176c-0.25,-0.023 -0.444,-0.229 -0.453,-0.481l-0.103,-3.063c-0.009,-0.276 0.207,-0.507 0.483,-0.516c0.258,-0.019 0.507,0.207 0.516,0.483l0.088,2.624l1.829,0.173c0.239,0.022 0.428,0.211 0.451,0.45l0.177,1.854l2.494,0.241c0.274,0.026 0.476,0.271 0.449,0.546c-0.025,0.259 -0.242,0.452 -0.497,0.452z" fill="#1f212b"></path><rect x="68.21077" y="21.78041" transform="rotate(45.001)" width="5" height="1" fill="#1f212b"></rect></g></g></g></svg>