<svg xmlns="http://www.w3.org/2000/svg" xmlns:xlink="http://www.w3.org/1999/xlink" viewBox="0,0,256,256" width="480px" height="480px" fill-rule="nonzero" fill="none"><g fill="none" fill-rule="nonzero" stroke="none" stroke-width="1" stroke-linecap="butt" stroke-linejoin="miter" stroke-miterlimit="10" stroke-dasharray="" stroke-dashoffset="0" font-family="none" font-weight="none" font-size="none" text-anchor="none" style="mix-blend-mode: normal"><g transform="scale(6.4,6.4)"><path d="M38.326,14.5c-2.375,-5.861 -8.113,-10 -14.826,-10c-6.713,0 -12.451,4.139 -14.826,10z" fill="#161a5e"></path><path d="M39.068,15h-31.136l0.278,-0.688c2.539,-6.264 8.54,-10.312 15.29,-10.312c6.75,0 12.751,4.048 15.29,10.313zM9.435,14h28.131c-2.535,-5.492 -7.976,-9 -14.066,-9c-6.09,0 -11.531,3.508 -14.065,9z" fill="#000000"></path><path d="M8.024,16.5c-0.25,0.968 -0.41,1.97 -0.474,3h31.9c-0.064,-1.03 -0.224,-2.032 -0.474,-3z" fill="#161a5e"></path><path d="M39.981,20h-32.962l0.033,-0.53c0.064,-1.048 0.229,-2.089 0.488,-3.095l0.097,-0.375h31.727l0.097,0.375c0.26,1.006 0.424,2.047 0.488,3.095zM8.092,19h30.816c-0.064,-0.675 -0.174,-1.345 -0.325,-2h-30.166c-0.151,0.655 -0.261,1.325 -0.325,2z" fill="#000000"></path><g><path d="M38.976,24.5c0.25,-0.968 0.41,-1.97 0.474,-3h-31.9c0.064,1.03 0.224,2.032 0.474,3z" fill="#161a5e"></path><path d="M39.363,25h-31.726l-0.097,-0.375c-0.26,-1.006 -0.424,-2.047 -0.488,-3.095l-0.033,-0.53h32.963l-0.033,0.53c-0.064,1.048 -0.229,2.089 -0.488,3.095zM8.417,24h30.166c0.151,-0.655 0.261,-1.325 0.325,-2h-30.816c0.064,0.675 0.174,1.345 0.325,2z" fill="#000000"></path></g><g><path d="M8.674,26.5c2.375,5.861 8.113,10 14.826,10c6.713,0 12.451,-4.139 14.826,-10z" fill="#161a5e"></path><path d="M23.5,37c-6.75,0 -12.751,-4.048 -15.29,-10.313l-0.278,-0.687h31.137l-0.278,0.688c-2.54,6.264 -8.541,10.312 -15.291,10.312zM9.435,27c2.534,5.492 7.976,9 14.065,9c6.089,0 11.531,-3.508 14.065,-9z" fill="#000000"></path></g><g><path d="M5.5,20.5c0,-6.785 3.757,-12.687 9.301,-15.755c-7.548,1.285 -13.301,7.84 -13.301,15.755c0,7.915 5.753,14.47 13.301,15.755c-5.544,-3.068 -9.301,-8.97 -9.301,-15.755z" fill="#ff8927"></path><path d="M17.617,37.241l-2.9,-0.493c-7.948,-1.353 -13.717,-8.186 -13.717,-16.248c0,-8.062 5.769,-14.895 13.717,-16.248l2.9,-0.493l-2.574,1.424c-5.578,3.086 -9.043,8.955 -9.043,15.317c0,6.362 3.465,12.231 9.043,15.317zM11.993,6.021c-5.933,2.235 -9.993,7.925 -9.993,14.479c0,6.554 4.06,12.244 9.993,14.479c-4.374,-3.477 -6.993,-8.791 -6.993,-14.479c0,-5.688 2.619,-11.002 6.993,-14.479z" fill="#000000"></path></g><g fill="#2a4888"><path d="M12.838,27c2.196,3.593 6.143,6 10.662,6c4.519,0 8.467,-2.407 10.662,-6z"></path></g></g></g></svg>