<svg xmlns="http://www.w3.org/2000/svg" xmlns:xlink="http://www.w3.org/1999/xlink" viewBox="0,0,256,256" width="256px" height="256px" fill-rule="nonzero"><defs><linearGradient x1="19.926" y1="30.337" x2="19.926" y2="35.677" gradientUnits="userSpaceOnUse" id="color-1"><stop offset="0" stop-color="#4f5b93"></stop><stop offset="0.699" stop-color="#4f5b93"></stop></linearGradient><linearGradient x1="32" y1="19.842" x2="32" y2="44.243" gradientUnits="userSpaceOnUse" id="color-2"><stop offset="0" stop-color="#4f5b93"></stop><stop offset="0.699" stop-color="#4f5b93"></stop></linearGradient><linearGradient x1="32" y1="13" x2="32" y2="60.627" gradientUnits="userSpaceOnUse" id="color-3"><stop offset="0" stop-color="#4f5b93"></stop><stop offset="1" stop-color="#4f5b93"></stop></linearGradient></defs><g fill="none" fill-rule="nonzero" stroke="none" stroke-width="1" stroke-linecap="butt" stroke-linejoin="miter" stroke-miterlimit="10" stroke-dasharray="" stroke-dashoffset="0" font-family="none" font-weight="none" font-size="none" text-anchor="none" style="mix-blend-mode: normal"><g transform="scale(4,4)"><path d="M20.92,36.28h-4.3l1.04,-5.69h3.69c0.8,0 1.27,0.46 1.48,0.73c0.2,0.27 0.53,0.84 0.35,1.62l-0.43,1.87c-0.2,0.86 -0.95,1.47 -1.83,1.47z" fill="url(#color-1)"></path><path d="M48.56,31.33c-0.35,-0.47 -0.88,-0.74 -1.45,-0.74h-3.59l-1.01,5.69h4.18c0.86,0 1.59,-0.61 1.79,-1.47l0.42,-1.88c0.17,-0.77 -0.14,-1.34 -0.34,-1.6zM48.56,31.33c-0.35,-0.47 -0.88,-0.74 -1.45,-0.74h-3.59l-1.01,5.69h4.18c0.86,0 1.59,-0.61 1.79,-1.47l0.42,-1.88c0.17,-0.77 -0.14,-1.34 -0.34,-1.6zM57.65,26.23c0.5,0.41 0.97,0.84 1.39,1.27c-0.42,-0.44 -0.88,-0.86 -1.39,-1.27zM59.04,40.5c-0.42,0.43 -0.89,0.86 -1.39,1.27c0.51,-0.41 0.97,-0.83 1.39,-1.27zM54.2,23.92c0.64,0.36 1.26,0.73 1.83,1.11c-0.58,-0.39 -1.18,-0.76 -1.83,-1.11zM56.03,42.97c-0.57,0.38 -1.19,0.75 -1.83,1.11c0.65,-0.35 1.25,-0.72 1.83,-1.11zM32,21c-15.18,0 -28,5.95 -28,13c0,7.05 12.82,13 28,13c15.18,0 28,-5.95 28,-13c0,-7.05 -12.82,-13 -28,-13zM25.77,33.57l-0.43,1.88c-0.49,2.1 -2.3,3.58 -4.42,3.58h-4.81l-0.45,2.45c-0.04,0.21 -0.21,0.36 -0.41,0.36h-1.79c-0.17,0 -0.27,-0.1 -0.31,-0.15c-0.09,-0.11 -0.12,-0.24 -0.1,-0.38l2.51,-13.11c0.04,-0.2 0.21,-0.35 0.41,-0.35h5.23c1.23,0 2.36,0.41 3.17,1.17c1.27,1.17 1.79,2.87 1.4,4.55zM38.96,30.97l-1.35,6.76c-0.04,0.21 -0.24,0.36 -0.47,0.36h-1.93c-0.15,0 -0.29,-0.06 -0.38,-0.17c-0.05,-0.06 -0.12,-0.18 -0.09,-0.34l1.14,-5.99c0.08,-0.41 -0.03,-0.84 -0.3,-1.16c-0.28,-0.34 -0.7,-0.54 -1.15,-0.54h-3.22l-1.44,7.83c-0.04,0.22 -0.23,0.37 -0.47,0.37h-1.93c-0.15,0 -0.29,-0.06 -0.38,-0.17c-0.04,-0.06 -0.12,-0.18 -0.09,-0.34l2.59,-14.05c0.04,-0.21 0.24,-0.37 0.47,-0.37h1.93c0.15,0 0.29,0.07 0.38,0.18c0.05,0.05 0.12,0.17 0.09,0.33l-0.64,3.47h3.76c0.67,0 1.28,0.14 1.76,0.4c1.29,0.69 1.98,2.07 1.72,3.43zM51.38,33.57l-0.42,1.88c-0.47,2.1 -2.23,3.58 -4.27,3.58h-4.67l-0.44,2.46c-0.03,0.2 -0.19,0.35 -0.38,0.35h-1.74c-0.14,0 -0.24,-0.09 -0.28,-0.14c-0.09,-0.11 -0.12,-0.25 -0.1,-0.39l2.43,-13.11c0.04,-0.21 0.2,-0.35 0.38,-0.35h5.08c1.18,0 2.26,0.41 3.05,1.17c1.23,1.17 1.74,2.87 1.36,4.55zM47.11,30.59h-3.59l-1.01,5.69h4.18c0.86,0 1.59,-0.61 1.79,-1.47l0.42,-1.88c0.17,-0.77 -0.14,-1.34 -0.34,-1.6c-0.35,-0.47 -0.88,-0.74 -1.45,-0.74zM7.97,25.03c0.57,-0.38 1.19,-0.75 1.83,-1.11c-0.65,0.35 -1.25,0.72 -1.83,1.11zM9.8,44.08c-0.64,-0.36 -1.26,-0.73 -1.83,-1.11c0.58,0.39 1.18,0.76 1.83,1.11zM4.96,27.5c0.42,-0.43 0.89,-0.86 1.39,-1.27c-0.51,0.41 -0.97,0.83 -1.39,1.27zM6.35,41.77c-0.5,-0.41 -0.97,-0.84 -1.39,-1.27c0.42,0.44 0.88,0.86 1.39,1.27z" fill="url(#color-2)"></path><path d="M57.65,26.23c0.5,0.41 0.97,0.84 1.39,1.27c-0.42,-0.44 -0.88,-0.86 -1.39,-1.27zM59.04,40.5c-0.42,0.43 -0.89,0.86 -1.39,1.27c0.51,-0.41 0.97,-0.83 1.39,-1.27zM56.03,25.03c-0.58,-0.39 -1.18,-0.76 -1.83,-1.11c0.64,0.36 1.26,0.73 1.83,1.11zM56.03,42.97c-0.57,0.38 -1.19,0.75 -1.83,1.11c0.65,-0.35 1.25,-0.72 1.83,-1.11zM9.8,23.92c-0.65,0.35 -1.25,0.72 -1.83,1.11c0.57,-0.38 1.19,-0.75 1.83,-1.11zM9.8,44.08c-0.64,-0.36 -1.26,-0.73 -1.83,-1.11c0.58,0.39 1.18,0.76 1.83,1.11zM6.35,26.23c-0.51,0.41 -0.97,0.83 -1.39,1.27c0.42,-0.43 0.89,-0.86 1.39,-1.27zM6.35,41.77c-0.5,-0.41 -0.97,-0.84 -1.39,-1.27c0.42,0.44 0.88,0.86 1.39,1.27z" fill="#4f5b93"></path><path d="M32,17c-17.94,0 -32,7.47 -32,17c0,9.53 14.06,17 32,17c17.94,0 32,-7.47 32,-17c0,-9.53 -14.06,-17 -32,-17zM61.65,36.28c-0.45,1.49 -1.35,2.91 -2.61,4.22c-0.42,0.43 -0.89,0.86 -1.39,1.27c-0.5,0.41 -1.04,0.81 -1.62,1.2c-0.57,0.38 -1.19,0.75 -1.83,1.11c-5.5,3.02 -13.41,4.92 -22.2,4.92c-8.79,0 -16.7,-1.9 -22.2,-4.92c-0.64,-0.36 -1.26,-0.73 -1.83,-1.11c-0.58,-0.39 -1.12,-0.79 -1.62,-1.2c-0.5,-0.41 -0.97,-0.84 -1.39,-1.27c-1.26,-1.31 -2.16,-2.73 -2.61,-4.22c-0.16,-0.49 -0.26,-1 -0.31,-1.51c-0.03,-0.25 -0.04,-0.51 -0.04,-0.77c0,-0.26 0.01,-0.52 0.04,-0.77c0.05,-0.51 0.15,-1.02 0.31,-1.51c0.45,-1.49 1.35,-2.91 2.61,-4.22c0.42,-0.43 0.89,-0.86 1.39,-1.27c0.5,-0.41 1.04,-0.81 1.62,-1.2c0.57,-0.38 1.19,-0.75 1.83,-1.11c5.5,-3.02 13.41,-4.92 22.2,-4.92c8.79,0 16.7,1.9 22.2,4.92c0.64,0.36 1.26,0.73 1.83,1.11c0.58,0.39 1.12,0.79 1.62,1.2c0.5,0.41 0.97,0.84 1.39,1.27c1.26,1.31 2.16,2.73 2.61,4.22c0.16,0.49 0.26,1 0.31,1.51c0.03,0.25 0.04,0.51 0.04,0.77c0,0.26 -0.01,0.52 -0.04,0.77c-0.05,0.51 -0.15,1.02 -0.31,1.51z" fill="url(#color-3)"></path></g></g></svg>