<svg xmlns="http://www.w3.org/2000/svg" xmlns:xlink="http://www.w3.org/1999/xlink" viewBox="0,0,256,256" width="480px" height="480px" fill-rule="nonzero" fill="none"><g fill="none" fill-rule="nonzero" stroke="none" stroke-width="1" stroke-linecap="butt" stroke-linejoin="miter" stroke-miterlimit="10" stroke-dasharray="" stroke-dashoffset="0" font-family="none" font-weight="none" font-size="none" text-anchor="none" style="mix-blend-mode: normal"><g transform="scale(2.56,2.56)"><path d="M69,82h-38c-7.18,0 -13,-5.82 -13,-13v-38c0,-7.18 5.82,-13 13,-13h38c7.18,0 13,5.82 13,13v38c0,7.18 -5.82,13 -13,13z" fill="#e3e2d3"></path><path d="M66.5,78h-33c-6.341,0 -11.5,-5.159 -11.5,-11.5v-33c0,-6.341 5.159,-11.5 11.5,-11.5h33c0.353,0 0.701,0.021 1.046,0.053c0.275,0.025 0.477,0.269 0.452,0.544c-0.025,0.274 -0.258,0.476 -0.544,0.452c-0.315,-0.029 -0.632,-0.049 -0.954,-0.049h-33c-5.79,0 -10.5,4.71 -10.5,10.5v33c0,5.79 4.71,10.5 10.5,10.5h33c5.79,0 10.5,-4.71 10.5,-10.5v-17c0,-0.276 0.224,-0.5 0.5,-0.5c0.276,0 0.5,0.224 0.5,0.5v17c0,6.341 -5.159,11.5 -11.5,11.5zM77.5,40c-0.276,0 -0.5,-0.224 -0.5,-0.5v-2c0,-0.276 0.224,-0.5 0.5,-0.5c0.276,0 0.5,0.224 0.5,0.5v2c0,0.276 -0.224,0.5 -0.5,0.5zM77.5,47c-0.276,0 -0.5,-0.224 -0.5,-0.5v-4c0,-0.276 0.224,-0.5 0.5,-0.5c0.276,0 0.5,0.224 0.5,0.5v4c0,0.276 -0.224,0.5 -0.5,0.5z" fill="#1f212b"></path><path d="M69,83h-38c-7.72,0 -14,-6.28 -14,-14v-38c0,-7.72 6.28,-14 14,-14h38c7.72,0 14,6.28 14,14v38c0,7.72 -6.28,14 -14,14zM31,19c-6.617,0 -12,5.383 -12,12v38c0,6.617 5.383,12 12,12h38c6.617,0 12,-5.383 12,-12v-38c0,-6.617 -5.383,-12 -12,-12z" fill="#1f212b"></path><path d="M33.701,30.705l-3.182,3.182c-0.879,0.879 -0.945,2.237 -0.147,3.035l32.707,32.707c0.797,0.797 2.156,0.731 3.035,-0.147l3.182,-3.182c0.879,-0.879 0.945,-2.237 0.147,-3.035l-32.707,-32.708c-0.798,-0.797 -2.156,-0.731 -3.035,0.148zM35.999,36.185c-0.391,0.391 -1.024,0.391 -1.414,0c-0.39,-0.391 -0.391,-1.024 0,-1.414c0.391,-0.391 1.024,-0.391 1.414,0c0.391,0.39 0.391,1.023 0,1.414z" fill="#dcc214"></path><path d="M35.292,30.649c0.512,0 1.024,0.195 1.414,0.586l32.059,32.059c0.781,0.781 0.781,2.047 0,2.828l-2.828,2.828c-0.391,0.391 -0.902,0.586 -1.414,0.586c-0.512,0 -1.024,-0.195 -1.414,-0.586l-32.06,-32.058c-0.781,-0.781 -0.781,-2.047 0,-2.828l2.828,-2.828c0.391,-0.392 0.903,-0.587 1.415,-0.587M35.292,29.649c-0.801,0 -1.555,0.312 -2.121,0.879l-2.828,2.828c-0.567,0.567 -0.879,1.32 -0.879,2.121c0,0.801 0.312,1.555 0.879,2.121l32.059,32.059c0.567,0.567 1.32,0.879 2.121,0.879c0.801,0 1.555,-0.312 2.121,-0.879l2.828,-2.828c0.567,-0.567 0.879,-1.32 0.879,-2.121c0,-0.801 -0.312,-1.555 -0.879,-2.121l-32.059,-32.059c-0.566,-0.567 -1.32,-0.879 -2.121,-0.879z" fill="#1f212b"></path><path d="M35.292,34.478c0.256,0 0.512,0.098 0.707,0.293c0.391,0.391 0.391,1.024 0,1.414c-0.195,0.195 -0.451,0.293 -0.707,0.293c-0.256,0 -0.512,-0.098 -0.707,-0.293c-0.391,-0.391 -0.391,-1.024 0,-1.414c0.195,-0.196 0.451,-0.293 0.707,-0.293M35.292,33.478c-0.534,0 -1.036,0.208 -1.414,0.586c-0.78,0.78 -0.78,2.049 0,2.828c0.378,0.378 0.88,0.586 1.414,0.586c0.534,0 1.036,-0.208 1.414,-0.586c0.78,-0.78 0.78,-2.049 0,-2.828c-0.378,-0.378 -0.88,-0.586 -1.414,-0.586z" fill="#1f212b"></path><path d="M40.242,38.099c-0.128,0 -0.256,-0.049 -0.354,-0.146c-0.195,-0.195 -0.195,-0.512 0,-0.707l1.414,-1.415c0.195,-0.195 0.512,-0.195 0.707,0c0.195,0.195 0.195,0.512 0,0.707l-1.414,1.415c-0.097,0.097 -0.225,0.146 -0.353,0.146z" fill="#1f212b"></path><path d="M41.951,42.637c-0.128,0 -0.256,-0.049 -0.354,-0.146c-0.195,-0.195 -0.195,-0.512 0,-0.707l2.828,-2.829c0.195,-0.195 0.512,-0.195 0.707,0c0.195,0.195 0.195,0.512 0,0.707l-2.828,2.829c-0.097,0.097 -0.225,0.146 -0.353,0.146z" fill="#1f212b"></path><path d="M46.489,44.346c-0.128,0 -0.256,-0.049 -0.354,-0.146c-0.195,-0.195 -0.195,-0.512 0,-0.707l1.414,-1.414c0.195,-0.195 0.512,-0.195 0.707,0c0.195,0.195 0.195,0.512 0,0.707l-1.414,1.414c-0.097,0.097 -0.225,0.146 -0.353,0.146z" fill="#1f212b"></path><path d="M48.198,48.884c-0.128,0 -0.256,-0.049 -0.354,-0.146c-0.195,-0.195 -0.195,-0.512 0,-0.707l2.829,-2.829c0.195,-0.195 0.512,-0.195 0.707,0c0.195,0.195 0.195,0.512 0,0.707l-2.829,2.829c-0.097,0.097 -0.225,0.146 -0.353,0.146z" fill="#1f212b"></path><path d="M52.736,50.593c-0.128,0 -0.256,-0.049 -0.354,-0.146c-0.195,-0.195 -0.195,-0.512 0,-0.707l1.414,-1.414c0.195,-0.195 0.512,-0.195 0.707,0c0.195,0.195 0.195,0.512 0,0.707l-1.414,1.414c-0.097,0.097 -0.225,0.146 -0.353,0.146z" fill="#1f212b"></path><path d="M54.445,55.13c-0.128,0 -0.256,-0.049 -0.354,-0.146c-0.195,-0.195 -0.195,-0.512 0,-0.707l2.829,-2.828c0.195,-0.195 0.512,-0.195 0.707,0c0.195,0.195 0.195,0.512 0,0.707l-2.829,2.828c-0.097,0.098 -0.225,0.146 -0.353,0.146z" fill="#1f212b"></path><path d="M58.982,56.84c-0.128,0 -0.256,-0.049 -0.354,-0.146c-0.195,-0.195 -0.195,-0.512 0,-0.707l1.415,-1.415c0.195,-0.195 0.512,-0.195 0.707,0c0.195,0.195 0.195,0.512 0,0.707l-1.415,1.415c-0.097,0.097 -0.225,0.146 -0.353,0.146z" fill="#1f212b"></path><path d="M60.692,61.377c-0.128,0 -0.256,-0.049 -0.354,-0.146c-0.195,-0.195 -0.195,-0.512 0,-0.707l2.828,-2.829c0.195,-0.195 0.512,-0.195 0.707,0c0.195,0.195 0.195,0.512 0,0.707l-2.828,2.829c-0.097,0.098 -0.225,0.146 -0.353,0.146z" fill="#1f212b"></path><path d="M65.229,63.087c-0.128,0 -0.256,-0.049 -0.354,-0.146c-0.195,-0.195 -0.195,-0.512 0,-0.707l1.414,-1.415c0.195,-0.195 0.512,-0.195 0.707,0c0.195,0.195 0.195,0.512 0,0.707l-1.414,1.415c-0.097,0.097 -0.225,0.146 -0.353,0.146z" fill="#1f212b"></path><g><path d="M39.885,65.046l-7.205,3.799c-0.897,0.391 -1.917,-0.629 -1.526,-1.526l3.799,-7.205c0.372,-0.853 0.894,-1.62 1.543,-2.269l10.481,-10.481l15.146,-15.146c1.394,-1.394 3.791,-1.258 5.353,0.304v0v0c1.562,1.562 1.698,3.959 0.304,5.353l-15.144,15.146l-10.481,10.481c-0.65,0.649 -1.417,1.171 -2.27,1.544z" fill="#fbcfab"></path><path d="M67.478,32.522c-1.562,-1.562 -3.959,-1.698 -5.353,-0.304l-15.146,15.146l-9.872,9.872l0.103,3.064l2.267,0.214l0.216,2.265l2.904,0.281l10.039,-10.039l15.146,-15.146c1.395,-1.395 1.258,-3.791 -0.304,-5.353z" fill="#47673d"></path><path d="M32.762,64.273l-1.606,3.046c-0.391,0.896 0.629,1.917 1.525,1.525l3.046,-1.606z" fill="#515159"></path><path d="M67.478,32.522c-1.562,-1.562 -3.959,-1.698 -5.353,-0.304l-2.072,2.072l5.657,5.657l2.072,-2.072c1.395,-1.395 1.258,-3.791 -0.304,-5.353z" fill="#d8493a"></path><rect x="66.70942" y="-18.71937" transform="rotate(45.001)" width="8" height="8" fill="#515159"></rect><path d="M64.65,31.85c0.896,0 1.791,0.342 2.475,1.025v0c1.367,1.367 1.367,3.583 0,4.95l-14.849,14.849l-10.254,10.253c-0.636,0.636 -1.375,1.161 -2.186,1.551l-6.907,3.927c-0.147,0.071 -0.296,0.103 -0.439,0.103c-0.683,0 -1.236,-0.733 -0.896,-1.438l3.927,-6.907c0.39,-0.811 0.915,-1.55 1.551,-2.186l10.253,-10.253l14.849,-14.849c0.684,-0.683 1.58,-1.025 2.476,-1.025M64.65,30.85c-1.202,0 -2.332,0.468 -3.182,1.318l-14.849,14.849l-10.253,10.253c-0.709,0.709 -1.291,1.526 -1.73,2.428l-3.91,6.878l-0.017,0.03l-0.015,0.031c-0.301,0.624 -0.262,1.344 0.104,1.926c0.367,0.584 1.016,0.946 1.694,0.946c0.301,0 0.594,-0.068 0.872,-0.202l0.031,-0.015l0.03,-0.017l6.878,-3.91c0.902,-0.439 1.719,-1.02 2.428,-1.73l10.253,-10.253l14.849,-14.849c0.85,-0.85 1.318,-1.98 1.318,-3.182c0,-1.202 -0.468,-2.332 -1.318,-3.182c-0.851,-0.851 -1.981,-1.319 -3.183,-1.319z" fill="#1f212b"></path><rect x="18.21659" y="66.71071" transform="rotate(-45.001)" width="1" height="8" fill="#1f212b"></rect><rect x="15.21734" y="66.71095" transform="rotate(-45.001)" width="1" height="8" fill="#1f212b"></rect><path d="M62.529,43.628c-0.128,0 -0.256,-0.049 -0.354,-0.146l-3.182,-3.182c-0.195,-0.195 -0.195,-0.512 0,-0.707c0.195,-0.195 0.512,-0.195 0.707,0l3.182,3.182c0.195,0.195 0.195,0.512 0,0.707c-0.097,0.098 -0.225,0.146 -0.353,0.146z" fill="#1f212b"></path><path d="M57.933,39.032c-0.128,0 -0.256,-0.049 -0.354,-0.146l-1.061,-1.061c-0.195,-0.195 -0.195,-0.512 0,-0.707c0.195,-0.195 0.512,-0.195 0.707,0l1.061,1.061c0.195,0.195 0.195,0.512 0,0.707c-0.098,0.097 -0.225,0.146 -0.353,0.146z" fill="#1f212b"></path><rect x="10.21638" y="66.71057" transform="rotate(-45.001)" width="1" height="8" fill="#1f212b"></rect><path d="M42.597,63.56c-0.016,0 -0.032,-0.001 -0.049,-0.002l-2.904,-0.281c-0.238,-0.023 -0.427,-0.212 -0.449,-0.45l-0.177,-1.854l-1.855,-0.176c-0.25,-0.023 -0.444,-0.229 -0.453,-0.481l-0.103,-3.063c-0.009,-0.276 0.207,-0.507 0.483,-0.516c0.258,-0.019 0.507,0.207 0.516,0.483l0.088,2.624l1.829,0.173c0.239,0.022 0.428,0.211 0.451,0.45l0.177,1.854l2.494,0.241c0.274,0.026 0.476,0.271 0.449,0.546c-0.025,0.259 -0.242,0.452 -0.497,0.452z" fill="#1f212b"></path><rect x="68.21077" y="21.78041" transform="rotate(45.001)" width="5" height="1" fill="#1f212b"></rect></g></g></g><g fill="#000000" fill-rule="nonzero" stroke="none" stroke-width="1" stroke-linecap="butt" stroke-linejoin="miter" stroke-miterlimit="10" stroke-dasharray="" stroke-dashoffset="0" font-family="none" font-weight="none" font-size="none" text-anchor="none" style="mix-blend-mode: normal"><g><path d="M51.876,232.669v1.14c0,2.50667 -0.44333,4.70667 -1.33,6.6c-0.88667,1.88667 -2.15667,3.34333 -3.81,4.37c-1.65333,1.02667 -3.54667,1.54 -5.68,1.54v0c-2.11333,0 -3.99667,-0.50667 -5.65,-1.52c-1.66,-1.01333 -2.94333,-2.46333 -3.85,-4.35c-0.91333,-1.88667 -1.37333,-4.05333 -1.38,-6.5v0v-1.26c0,-2.50667 0.45,-4.71667 1.35,-6.63c0.90667,-1.90667 2.18333,-3.37 3.83,-4.39c1.65333,-1.02 3.54333,-1.53 5.67,-1.53c2.12,0 4.00667,0.51 5.66,1.53c1.64667,1.02 2.92333,2.48333 3.83,4.39c0.90667,1.91333 1.36,4.11667 1.36,6.61zM46.556,233.899v-1.25c0,-2.66667 -0.48,-4.69667 -1.44,-6.09c-0.95333,-1.38667 -2.31667,-2.08 -4.09,-2.08v0c-1.76667,0 -3.12667,0.68667 -4.08,2.06c-0.96,1.36667 -1.44333,3.37667 -1.45,6.03v0v1.24c0,2.6 0.47667,4.61667 1.43,6.05c0.96,1.44 2.33667,2.16 4.13,2.16v0c1.76,0 3.11333,-0.69333 4.06,-2.08c0.94667,-1.38 1.42667,-3.39333 1.44,-6.04zM66.066,226.909l-0.07,4.87c-0.68667,-0.09333 -1.29333,-0.14 -1.82,-0.14v0c-1.91333,0 -3.16667,0.64667 -3.76,1.94v0v12.39h-5.06v-18.93h4.78l0.14,2.25c1.01333,-1.73333 2.41667,-2.6 4.21,-2.6v0c0.56,0 1.08667,0.07333 1.58,0.22zM83.986,245.969h-5.11c-0.23333,-0.45333 -0.40333,-1.02 -0.51,-1.7v0c-1.22667,1.36667 -2.82,2.05 -4.78,2.05v0c-1.85333,0 -3.39,-0.53667 -4.61,-1.61c-1.22,-1.07333 -1.83,-2.42667 -1.83,-4.06v0c0,-2.00667 0.74333,-3.54667 2.23,-4.62c1.49333,-1.07333 3.64333,-1.61667 6.45,-1.63v0h2.33v-1.08c0,-0.87333 -0.22333,-1.57333 -0.67,-2.1c-0.45333,-0.52667 -1.16333,-0.79 -2.13,-0.79v0c-0.85333,0 -1.52,0.20333 -2,0.61c-0.48667,0.41333 -0.73,0.97333 -0.73,1.68v0h-5.06c0,-1.09333 0.34,-2.10667 1.02,-3.04c0.67333,-0.93333 1.63,-1.66667 2.87,-2.2c1.23333,-0.52667 2.62,-0.79 4.16,-0.79v0c2.33333,0 4.18667,0.58333 5.56,1.75c1.37333,1.17333 2.06,2.82333 2.06,4.95v0v8.21c0.00667,1.79333 0.25667,3.15 0.75,4.07v0zM74.696,242.449v0c0.74667,0 1.43333,-0.16667 2.06,-0.5c0.63333,-0.32667 1.1,-0.77 1.4,-1.33v0v-3.26h-1.89c-2.53333,0 -3.88,0.87667 -4.04,2.63v0l-0.02,0.29c0,0.63333 0.22333,1.15333 0.67,1.56c0.44,0.40667 1.04667,0.61 1.82,0.61zM94.996,242.239v0c0.93333,0 1.69,-0.25667 2.27,-0.77c0.58667,-0.51333 0.89,-1.19333 0.91,-2.04v0h4.74c-0.00667,1.28 -0.35667,2.45333 -1.05,3.52c-0.68667,1.06667 -1.62667,1.89667 -2.82,2.49c-1.2,0.58667 -2.52333,0.88 -3.97,0.88v0c-2.70667,0 -4.84,-0.86 -6.4,-2.58c-1.56667,-1.72 -2.35,-4.09667 -2.35,-7.13v0v-0.33c0,-2.92 0.77667,-5.25 2.33,-6.99c1.55333,-1.73333 3.68333,-2.6 6.39,-2.6v0c2.36667,0 4.26333,0.67333 5.69,2.02c1.43333,1.34667 2.16,3.14 2.18,5.38v0h-4.74c-0.02,-0.98 -0.32333,-1.77667 -0.91,-2.39c-0.58,-0.61333 -1.35,-0.92 -2.31,-0.92v0c-1.18,0 -2.07,0.43 -2.67,1.29c-0.6,0.85333 -0.9,2.24333 -0.9,4.17v0v0.53c0,1.94667 0.29667,3.34667 0.89,4.2c0.6,0.84667 1.50667,1.27 2.72,1.27zM111.146,219.089v26.88h-5.08v-26.88zM124.026,246.319v0c-2.78,0 -5.04,-0.85 -6.78,-2.55c-1.74667,-1.70667 -2.62,-3.97667 -2.62,-6.81v0v-0.49c0,-1.9 0.36667,-3.6 1.1,-5.1c0.74,-1.5 1.78333,-2.65667 3.13,-3.47c1.34667,-0.80667 2.88333,-1.21 4.61,-1.21v0c2.58667,0 4.62333,0.81667 6.11,2.45c1.49333,1.63333 2.24,3.94667 2.24,6.94v0v2.07h-12.06c0.16,1.23333 0.65333,2.22333 1.48,2.97c0.82,0.74667 1.86,1.12 3.12,1.12v0c1.94667,0 3.47,-0.70333 4.57,-2.11v0l2.48,2.78c-0.75333,1.07333 -1.78,1.91 -3.08,2.51c-1.29333,0.6 -2.72667,0.9 -4.3,0.9zM123.446,230.779v0c-1,0 -1.81333,0.34 -2.44,1.02c-0.62667,0.67333 -1.02667,1.64 -1.2,2.9v0h7.04v-0.4c-0.02667,-1.12 -0.33,-1.98667 -0.91,-2.6c-0.58667,-0.61333 -1.41667,-0.92 -2.49,-0.92zM160.096,245.969l-1.77,-5.25h-9.21l-1.75,5.25h-5.58l9.49,-25.48h4.86l9.54,25.48zM153.706,226.929l-3.17,9.54h6.37zM177.906,236.989h-4.6v8.98h-5.25v-25.48h9.94c1.91333,0 3.59667,0.35 5.05,1.05c1.45333,0.7 2.57,1.69333 3.35,2.98c0.78,1.29333 1.17,2.76333 1.17,4.41v0c0,2.49333 -0.85333,4.46 -2.56,5.9c-1.71333,1.44 -4.08,2.16 -7.1,2.16zM173.306,224.739v8h4.69c1.38667,0 2.44333,-0.32667 3.17,-0.98c0.73333,-0.65333 1.1,-1.58667 1.1,-2.8v0c0,-1.24667 -0.36667,-2.25667 -1.1,-3.03c-0.74,-0.76667 -1.75667,-1.16333 -3.05,-1.19v0zM206.506,230.819v4.11h-10.08v6.82h11.83v4.22h-17.08v-25.48h17.04v4.25h-11.79v6.08zM215.676,220.489l4.77,8.79l4.78,-8.79h6.04l-7.42,12.64l7.61,12.84h-6.11l-4.9,-8.92l-4.9,8.92h-6.1l7.61,-12.84l-7.42,-12.64z"></path></g></g></svg>